# xmcd CD database file
#
# Track frame offsets:
#	150
#	16472
#	33017
#	44065
#	58159
#	71906
#	102811
#	116273
#	132671
#	151070
#	169310
#
# Disc length: 2444 seconds
#
# Revision: 0
# Processed by: cddbd v1.5.1PL0 Copyright (c) Steve Scherf et al.
# Submitted via: CDex 1.51
#
DISCID=96098a0b
DTITLE=Howard Keel - The Way We Were
DYEAR=1900
DGENRE=Country
TTITLE0=If Ever I Would Leave You
TTITLE1=Send In The Clowns
TTITLE2=Something
TTITLE3=You Needed Me
TTITLE4=Love The World Away
TTITLE5=Anne Get Your Gun Medley
TTITLE6=Cycles
TTITLE7=The Way We Were
TTITLE8=Born Again
TTITLE9=I Won't Last A Day Without you
TTITLE10=Love Story
EXTD=
EXTT0=
EXTT1=
EXTT2=
EXTT3=
EXTT4=
EXTT5=
EXTT6=
EXTT7=
EXTT8=
EXTT9=
EXTT10=
PLAYORDER=
